<mxfile host="65bd71144e">
    <diagram name="Page-1" id="kk1HLHu_gnZy5Cn993aN">
        <mxGraphModel dx="568" dy="353" grid="1" gridSize="10" guides="0" tooltips="1" connect="1" arrows="1" fold="1" page="1" pageScale="1" pageWidth="850" pageHeight="1100" math="0" shadow="0">
            <root>
                <mxCell id="0"/>
                <mxCell id="1" parent="0"/>
                <mxCell id="12lz_SYmpbxtrTl04Gqi-2" value="&lt;font style=&quot;font-size: 10px;&quot;&gt;c0&lt;/font&gt;" style="rounded=0;whiteSpace=wrap;html=1;fontSize=10;fillColor=#ffe6cc;strokeColor=#d79b00;" parent="1" vertex="1">
                    <mxGeometry x="230" y="90" width="20" height="10" as="geometry"/>
                </mxCell>
                <mxCell id="pCyvtXLSAHgm4okcG52U-1" value="A" style="rounded=0;whiteSpace=wrap;html=1;fontSize=10;fillColor=#dae8fc;strokeColor=#6c8ebf;" parent="1" vertex="1">
                    <mxGeometry x="60" y="70" width="20" height="10" as="geometry"/>
                </mxCell>
                <mxCell id="pCyvtXLSAHgm4okcG52U-4" value="B" style="rounded=0;whiteSpace=wrap;html=1;fontSize=10;fillColor=#d5e8d4;strokeColor=#82b366;" parent="1" vertex="1">
                    <mxGeometry x="80" y="70" width="10" height="10" as="geometry"/>
                </mxCell>
                <mxCell id="pCyvtXLSAHgm4okcG52U-5" value="C" style="rounded=0;whiteSpace=wrap;html=1;fontSize=10;fillColor=#ffe6cc;strokeColor=#d79b00;" parent="1" vertex="1">
                    <mxGeometry x="90" y="70" width="30" height="10" as="geometry"/>
                </mxCell>
                <mxCell id="pCyvtXLSAHgm4okcG52U-6" value="D" style="rounded=0;whiteSpace=wrap;html=1;fontSize=10;fillColor=#fff2cc;strokeColor=#d6b656;" parent="1" vertex="1">
                    <mxGeometry x="120" y="70" width="20" height="10" as="geometry"/>
                </mxCell>
                <mxCell id="pCyvtXLSAHgm4okcG52U-8" value="&lt;font style=&quot;font-size: 10px;&quot;&gt;a0&lt;/font&gt;" style="rounded=0;whiteSpace=wrap;html=1;fontSize=10;fillColor=#dae8fc;strokeColor=#6c8ebf;" parent="1" vertex="1">
                    <mxGeometry x="210" y="70" width="20" height="10" as="geometry"/>
                </mxCell>
                <mxCell id="pCyvtXLSAHgm4okcG52U-12" value="&lt;font style=&quot;font-size: 10px;&quot;&gt;c0&lt;/font&gt;" style="rounded=0;whiteSpace=wrap;html=1;fontSize=10;fillColor=#ffe6cc;strokeColor=#d79b00;" parent="1" vertex="1">
                    <mxGeometry x="250" y="70" width="20" height="10" as="geometry"/>
                </mxCell>
                <mxCell id="pCyvtXLSAHgm4okcG52U-13" value="d0" style="rounded=0;whiteSpace=wrap;html=1;fontSize=10;fillColor=#fff2cc;strokeColor=#d6b656;" parent="1" vertex="1">
                    <mxGeometry x="270" y="70" width="20" height="10" as="geometry"/>
                </mxCell>
                <mxCell id="pCyvtXLSAHgm4okcG52U-15" value="b0" style="rounded=0;whiteSpace=wrap;html=1;fontSize=10;fillColor=#d5e8d4;strokeColor=#82b366;" parent="1" vertex="1">
                    <mxGeometry x="210" y="90" width="20" height="10" as="geometry"/>
                </mxCell>
                <mxCell id="pCyvtXLSAHgm4okcG52U-20" value="d0" style="rounded=0;whiteSpace=wrap;html=1;fontSize=10;fillColor=#fff2cc;strokeColor=#d6b656;" parent="1" vertex="1">
                    <mxGeometry x="210" y="130" width="20" height="10" as="geometry"/>
                </mxCell>
                <mxCell id="pCyvtXLSAHgm4okcG52U-33" value="meta" style="rounded=0;whiteSpace=wrap;html=1;fontSize=10;fillColor=#f5f5f5;fontColor=#333333;strokeColor=#666666;" parent="1" vertex="1">
                    <mxGeometry x="180" y="70" width="30" height="10" as="geometry"/>
                </mxCell>
                <mxCell id="pCyvtXLSAHgm4okcG52U-35" value="meta" style="rounded=0;whiteSpace=wrap;html=1;fontSize=10;fillColor=#f5f5f5;fontColor=#333333;strokeColor=#666666;" parent="1" vertex="1">
                    <mxGeometry x="180" y="90" width="30" height="10" as="geometry"/>
                </mxCell>
                <mxCell id="pCyvtXLSAHgm4okcG52U-36" value="meta" style="rounded=0;whiteSpace=wrap;html=1;fontSize=10;fillColor=#f5f5f5;fontColor=#333333;strokeColor=#666666;" parent="1" vertex="1">
                    <mxGeometry x="180" y="130" width="30" height="10" as="geometry"/>
                </mxCell>
                <mxCell id="pCyvtXLSAHgm4okcG52U-40" value="imms" style="rounded=0;whiteSpace=wrap;html=1;fontSize=10;fillColor=#f5f5f5;fontColor=#333333;strokeColor=#666666;" parent="1" vertex="1">
                    <mxGeometry x="300" y="70" width="50" height="10" as="geometry"/>
                </mxCell>
                <mxCell id="pCyvtXLSAHgm4okcG52U-41" value="imms" style="rounded=0;whiteSpace=wrap;html=1;fontSize=10;fillColor=#f5f5f5;fontColor=#333333;strokeColor=#666666;" parent="1" vertex="1">
                    <mxGeometry x="310" y="90" width="40" height="10" as="geometry"/>
                </mxCell>
                <mxCell id="pCyvtXLSAHgm4okcG52U-42" value="imms" style="rounded=0;whiteSpace=wrap;html=1;fontSize=10;fillColor=#f5f5f5;fontColor=#333333;strokeColor=#666666;" parent="1" vertex="1">
                    <mxGeometry x="320" y="100" width="30" height="10" as="geometry"/>
                </mxCell>
                <mxCell id="pCyvtXLSAHgm4okcG52U-71" value="二进制文件代码段" style="text;html=1;strokeColor=none;fillColor=none;align=center;verticalAlign=middle;whiteSpace=wrap;rounded=0;" parent="1" vertex="1">
                    <mxGeometry x="50" y="30" width="100" height="20" as="geometry"/>
                </mxCell>
                <mxCell id="pCyvtXLSAHgm4okcG52U-72" value="&lt;font style=&quot;font-size: 12px;&quot;&gt;预翻译文件代码段&lt;/font&gt;" style="text;html=1;strokeColor=none;fillColor=none;align=center;verticalAlign=middle;whiteSpace=wrap;rounded=0;" parent="1" vertex="1">
                    <mxGeometry x="180" y="30" width="170" height="20" as="geometry"/>
                </mxCell>
                <mxCell id="12lz_SYmpbxtrTl04Gqi-3" value="&lt;font style=&quot;font-size: 10px;&quot;&gt;c0&lt;/font&gt;" style="rounded=0;whiteSpace=wrap;html=1;fontSize=10;fillColor=#ffe6cc;strokeColor=#d79b00;" parent="1" vertex="1">
                    <mxGeometry x="210" y="100" width="20" height="10" as="geometry"/>
                </mxCell>
                <mxCell id="2zrcnqqGAeY9BgrAGdMQ-4" value="0x0" style="rounded=0;whiteSpace=wrap;html=1;fontSize=8;fillColor=none;strokeColor=none;" parent="1" vertex="1">
                    <mxGeometry x="160" y="70" width="10" height="10" as="geometry"/>
                </mxCell>
                <mxCell id="2zrcnqqGAeY9BgrAGdMQ-5" value="0x40" style="rounded=0;whiteSpace=wrap;html=1;fontSize=8;fillColor=none;strokeColor=none;" parent="1" vertex="1">
                    <mxGeometry x="160" y="80" width="10" height="10" as="geometry"/>
                </mxCell>
                <mxCell id="2zrcnqqGAeY9BgrAGdMQ-6" value="0x80" style="rounded=0;whiteSpace=wrap;html=1;fontSize=8;fillColor=none;strokeColor=none;" parent="1" vertex="1">
                    <mxGeometry x="160" y="90" width="10" height="10" as="geometry"/>
                </mxCell>
                <mxCell id="2zrcnqqGAeY9BgrAGdMQ-26" value="" style="group" parent="1" vertex="1" connectable="0">
                    <mxGeometry x="60" y="60" width="80" height="10" as="geometry"/>
                </mxCell>
                <mxCell id="2zrcnqqGAeY9BgrAGdMQ-18" value="&lt;span style=&quot;font-size: 8px;&quot;&gt;0&lt;/span&gt;" style="text;html=1;strokeColor=none;fillColor=none;align=center;verticalAlign=middle;whiteSpace=wrap;rounded=0;spacingLeft=0;spacing=2;spacingRight=0;spacingBottom=1;" parent="2zrcnqqGAeY9BgrAGdMQ-26" vertex="1">
                    <mxGeometry width="10" height="10" as="geometry"/>
                </mxCell>
                <mxCell id="2zrcnqqGAeY9BgrAGdMQ-19" value="&lt;span style=&quot;font-size: 8px;&quot;&gt;1&lt;/span&gt;" style="text;html=1;strokeColor=none;fillColor=none;align=center;verticalAlign=middle;whiteSpace=wrap;rounded=0;spacingLeft=0;spacing=2;spacingRight=0;spacingBottom=1;" parent="2zrcnqqGAeY9BgrAGdMQ-26" vertex="1">
                    <mxGeometry x="10" width="10" height="10" as="geometry"/>
                </mxCell>
                <mxCell id="2zrcnqqGAeY9BgrAGdMQ-20" value="&lt;span style=&quot;font-size: 8px;&quot;&gt;2&lt;/span&gt;" style="text;html=1;strokeColor=none;fillColor=none;align=center;verticalAlign=middle;whiteSpace=wrap;rounded=0;spacingLeft=0;spacing=2;spacingRight=0;spacingBottom=1;" parent="2zrcnqqGAeY9BgrAGdMQ-26" vertex="1">
                    <mxGeometry x="20" width="10" height="10" as="geometry"/>
                </mxCell>
                <mxCell id="2zrcnqqGAeY9BgrAGdMQ-21" value="&lt;span style=&quot;font-size: 8px;&quot;&gt;3&lt;/span&gt;" style="text;html=1;strokeColor=none;fillColor=none;align=center;verticalAlign=middle;whiteSpace=wrap;rounded=0;spacingLeft=0;spacing=2;spacingRight=0;spacingBottom=1;" parent="2zrcnqqGAeY9BgrAGdMQ-26" vertex="1">
                    <mxGeometry x="30" width="10" height="10" as="geometry"/>
                </mxCell>
                <mxCell id="2zrcnqqGAeY9BgrAGdMQ-22" value="&lt;span style=&quot;font-size: 8px;&quot;&gt;4&lt;/span&gt;" style="text;html=1;strokeColor=none;fillColor=none;align=center;verticalAlign=middle;whiteSpace=wrap;rounded=0;spacingLeft=0;spacing=2;spacingRight=0;spacingBottom=1;" parent="2zrcnqqGAeY9BgrAGdMQ-26" vertex="1">
                    <mxGeometry x="40" width="10" height="10" as="geometry"/>
                </mxCell>
                <mxCell id="2zrcnqqGAeY9BgrAGdMQ-23" value="&lt;span style=&quot;font-size: 8px;&quot;&gt;5&lt;/span&gt;" style="text;html=1;strokeColor=none;fillColor=none;align=center;verticalAlign=middle;whiteSpace=wrap;rounded=0;spacingLeft=0;spacing=2;spacingRight=0;spacingBottom=1;" parent="2zrcnqqGAeY9BgrAGdMQ-26" vertex="1">
                    <mxGeometry x="50" width="10" height="10" as="geometry"/>
                </mxCell>
                <mxCell id="2zrcnqqGAeY9BgrAGdMQ-24" value="&lt;span style=&quot;font-size: 8px;&quot;&gt;6&lt;/span&gt;" style="text;html=1;strokeColor=none;fillColor=none;align=center;verticalAlign=middle;whiteSpace=wrap;rounded=0;spacingLeft=0;spacing=2;spacingRight=0;spacingBottom=1;" parent="2zrcnqqGAeY9BgrAGdMQ-26" vertex="1">
                    <mxGeometry x="60" width="10" height="10" as="geometry"/>
                </mxCell>
                <mxCell id="2zrcnqqGAeY9BgrAGdMQ-25" value="&lt;span style=&quot;font-size: 8px;&quot;&gt;7&lt;/span&gt;" style="text;html=1;strokeColor=none;fillColor=none;align=center;verticalAlign=middle;whiteSpace=wrap;rounded=0;spacingLeft=0;spacing=2;spacingRight=0;spacingBottom=1;" parent="2zrcnqqGAeY9BgrAGdMQ-26" vertex="1">
                    <mxGeometry x="70" width="10" height="10" as="geometry"/>
                </mxCell>
                <mxCell id="4" value="" style="shape=curlyBracket;whiteSpace=wrap;html=1;rounded=1;labelPosition=left;verticalLabelPosition=middle;align=right;verticalAlign=middle;direction=south;" parent="1" vertex="1">
                    <mxGeometry x="180" y="60" width="170" height="10" as="geometry"/>
                </mxCell>
                <mxCell id="7" value="64字节" style="text;html=1;strokeColor=none;fillColor=none;align=center;verticalAlign=middle;whiteSpace=wrap;rounded=0;fontSize=8;" parent="1" vertex="1">
                    <mxGeometry x="250" y="50" width="30" height="10" as="geometry"/>
                </mxCell>
                <mxCell id="2zrcnqqGAeY9BgrAGdMQ-7" value="0xc0" style="rounded=0;whiteSpace=wrap;html=1;fontSize=8;fillColor=none;strokeColor=none;" parent="1" vertex="1">
                    <mxGeometry x="160" y="100" width="10" height="10" as="geometry"/>
                </mxCell>
                <mxCell id="8" value="0x100" style="rounded=0;whiteSpace=wrap;html=1;fontSize=8;fillColor=none;strokeColor=none;" parent="1" vertex="1">
                    <mxGeometry x="160" y="110" width="10" height="10" as="geometry"/>
                </mxCell>
                <mxCell id="9" value="0x140" style="rounded=0;whiteSpace=wrap;html=1;fontSize=8;fillColor=none;strokeColor=none;" parent="1" vertex="1">
                    <mxGeometry x="160" y="120" width="10" height="10" as="geometry"/>
                </mxCell>
                <mxCell id="10" value="0x180" style="rounded=0;whiteSpace=wrap;html=1;fontSize=8;fillColor=none;strokeColor=none;" parent="1" vertex="1">
                    <mxGeometry x="160" y="130" width="10" height="10" as="geometry"/>
                </mxCell>
                <mxCell id="11" value="0x1c0" style="rounded=0;whiteSpace=wrap;html=1;fontSize=8;fillColor=none;strokeColor=none;" parent="1" vertex="1">
                    <mxGeometry x="160" y="140" width="10" height="10" as="geometry"/>
                </mxCell>
                <mxCell id="pCyvtXLSAHgm4okcG52U-37" value="meta" style="rounded=0;whiteSpace=wrap;html=1;fontSize=10;fillColor=#f5f5f5;fontColor=#333333;strokeColor=#666666;" parent="1" vertex="1">
                    <mxGeometry x="180" y="100" width="30" height="10" as="geometry"/>
                </mxCell>
                <mxCell id="pCyvtXLSAHgm4okcG52U-32" value="" style="endArrow=none;html=1;rounded=0;" parent="1" edge="1">
                    <mxGeometry width="50" height="50" relative="1" as="geometry">
                        <mxPoint x="180" y="150" as="sourcePoint"/>
                        <mxPoint x="350" y="150" as="targetPoint"/>
                        <Array as="points">
                            <mxPoint x="180" y="70"/>
                            <mxPoint x="350" y="70"/>
                        </Array>
                    </mxGeometry>
                </mxCell>
                <mxCell id="pCyvtXLSAHgm4okcG52U-52" value="" style="endArrow=none;html=1;rounded=0;fillColor=#f5f5f5;strokeColor=#666666;" parent="1" edge="1">
                    <mxGeometry width="50" height="50" relative="1" as="geometry">
                        <mxPoint x="180" y="80" as="sourcePoint"/>
                        <mxPoint x="350" y="80" as="targetPoint"/>
                    </mxGeometry>
                </mxCell>
                <mxCell id="pCyvtXLSAHgm4okcG52U-53" value="" style="endArrow=none;html=1;rounded=0;fillColor=#f5f5f5;strokeColor=#666666;" parent="1" edge="1">
                    <mxGeometry width="50" height="50" relative="1" as="geometry">
                        <mxPoint x="180" y="90" as="sourcePoint"/>
                        <mxPoint x="350" y="90" as="targetPoint"/>
                    </mxGeometry>
                </mxCell>
                <mxCell id="pCyvtXLSAHgm4okcG52U-54" value="" style="endArrow=none;html=1;rounded=0;fillColor=#f5f5f5;strokeColor=#666666;" parent="1" edge="1">
                    <mxGeometry width="50" height="50" relative="1" as="geometry">
                        <mxPoint x="180" y="100" as="sourcePoint"/>
                        <mxPoint x="350" y="100" as="targetPoint"/>
                    </mxGeometry>
                </mxCell>
                <mxCell id="pCyvtXLSAHgm4okcG52U-55" value="" style="endArrow=none;html=1;rounded=0;fillColor=#f5f5f5;strokeColor=#666666;" parent="1" edge="1">
                    <mxGeometry width="50" height="50" relative="1" as="geometry">
                        <mxPoint x="180" y="110" as="sourcePoint"/>
                        <mxPoint x="350" y="110" as="targetPoint"/>
                    </mxGeometry>
                </mxCell>
                <mxCell id="pCyvtXLSAHgm4okcG52U-56" value="" style="endArrow=none;html=1;rounded=0;fillColor=#f5f5f5;strokeColor=#666666;" parent="1" edge="1">
                    <mxGeometry width="50" height="50" relative="1" as="geometry">
                        <mxPoint x="180" y="120" as="sourcePoint"/>
                        <mxPoint x="350" y="120" as="targetPoint"/>
                    </mxGeometry>
                </mxCell>
                <mxCell id="pCyvtXLSAHgm4okcG52U-57" value="" style="endArrow=none;html=1;rounded=0;fillColor=#f5f5f5;strokeColor=#666666;" parent="1" edge="1">
                    <mxGeometry width="50" height="50" relative="1" as="geometry">
                        <mxPoint x="180" y="130" as="sourcePoint"/>
                        <mxPoint x="350" y="130" as="targetPoint"/>
                    </mxGeometry>
                </mxCell>
                <mxCell id="pCyvtXLSAHgm4okcG52U-58" value="" style="endArrow=none;html=1;rounded=0;fillColor=#f5f5f5;strokeColor=#666666;" parent="1" edge="1">
                    <mxGeometry width="50" height="50" relative="1" as="geometry">
                        <mxPoint x="180" y="140" as="sourcePoint"/>
                        <mxPoint x="350" y="140" as="targetPoint"/>
                    </mxGeometry>
                </mxCell>
                <mxCell id="2" value="" style="endArrow=none;html=1;rounded=0;fillColor=#f5f5f5;strokeColor=#666666;" parent="1" edge="1">
                    <mxGeometry width="50" height="50" relative="1" as="geometry">
                        <mxPoint x="180" y="150" as="sourcePoint"/>
                        <mxPoint x="350" y="150" as="targetPoint"/>
                    </mxGeometry>
                </mxCell>
                <mxCell id="pCyvtXLSAHgm4okcG52U-19" value="d0" style="rounded=0;whiteSpace=wrap;html=1;fontSize=10;fillColor=#fff2cc;strokeColor=#d6b656;" parent="1" vertex="1">
                    <mxGeometry x="230" y="100" width="20" height="10" as="geometry"/>
                </mxCell>
                <mxCell id="pCyvtXLSAHgm4okcG52U-17" value="d0" style="rounded=0;whiteSpace=wrap;html=1;fontSize=10;fillColor=#fff2cc;strokeColor=#d6b656;" parent="1" vertex="1">
                    <mxGeometry x="250" y="90" width="20" height="10" as="geometry"/>
                </mxCell>
                <mxCell id="pCyvtXLSAHgm4okcG52U-10" value="b0" style="rounded=0;whiteSpace=wrap;html=1;fontSize=10;fillColor=#d5e8d4;strokeColor=#82b366;" parent="1" vertex="1">
                    <mxGeometry x="230" y="70" width="20" height="10" as="geometry"/>
                </mxCell>
            </root>
        </mxGraphModel>
    </diagram>
</mxfile>